SplineFontDB: 3.0
FontName: Topmarks-Regular
FullName: Topmarks Regular
FamilyName: Topmarks
Weight: Medium
Copyright: vernon adams (c) 2013
Version: 1
ItalicAngle: 0
UnderlinePosition: 0
UnderlineWidth: 0
Ascent: 1638
Descent: 410
UFOAscent: 1638
UFODescent: -410
LayerCount: 2
Layer: 0 0 "Back"  1
Layer: 1 0 "Fore"  0
FSType: 0
OS2Version: 0
OS2_WeightWidthSlopeOnly: 0
OS2_UseTypoMetrics: 1
CreationTime: 1362553877
ModificationTime: 1362553992
PfmFamily: 17
TTFWeight: 500
TTFWidth: 5
LineGap: 0
VLineGap: 0
OS2TypoAscent: 1638
OS2TypoAOffset: 0
OS2TypoDescent: -410
OS2TypoDOffset: 0
OS2TypoLinegap: 0
OS2WinAscent: 1638
OS2WinAOffset: 0
OS2WinDescent: 410
OS2WinDOffset: 0
HheadAscent: 1638
HheadAOffset: 0
HheadDescent: -410
HheadDOffset: 0
OS2Vendor: 'newt'
Lookup: 258 0 0 "'kern' Horizontal Kerning in Latin lookup 0"  {"'kern' Horizontal Kerning in Latin lookup 0 subtable"  } ['kern' ('latn' <'dflt' > ) ]
MarkAttachClasses: 1
DEI: 91125
Encoding: ISO8859-1
Compacted: 1
UnicodeInterp: none
NameList: AGL For New Fonts
DisplaySize: -48
AntiAlias: 1
FitToEm: 1
WinInfo: 0 18 11
BeginPrivate: 7
BlueFuzz 1 1
BlueScale 8 0.055475
BlueShift 2 10
BlueValues 37 [-35 0 1026 1048 1449 1483 1490 1532]
OtherBlues 11 [-624 -574]
StemSnapH 20 [28 177 195 202 210]
StemSnapV 9 [234 244]
EndPrivate
BeginChars: 322 92

StartChar: A
Encoding: 65 65 0
Width: 1464
VWidth: 0
Flags: HW
LayerCount: 2
UndoRedoHistory
Layer: 1
Undoes
EndUndoes
Redoes
EndRedoes
EndUndoRedoHistory
Fore
SplineSet
464.4 531.8 m 1
 613.2 915.6 l 1
 727.2 1227.2 l 1
 842 916.2 l 1
 991.4 531.8 l 1
 464.4 531.8 l 1
38.2 0 m 1
 259.4 0 l 1
 402.4 371 l 1
 1052.6 371 l 1
 1195.2 0 l 1
 1423.8 0 l 1
 836 1452.8 l 1
 627.8 1452.8 l 1
 38.2 0 l 1
EndSplineSet
EndChar

StartChar: B
Encoding: 66 66 1
Width: 1374
VWidth: 0
Flags: HW
LayerCount: 2
UndoRedoHistory
Layer: 1
Undoes
EndUndoes
Redoes
EndRedoes
EndUndoRedoHistory
Fore
SplineSet
387.2 831.4 m 1
 387.2 1284 l 1
 623 1284 l 2
 884.4 1284 988.4 1223.8 988.4 1071 c 0
 988.4 901.6 881.8 831.4 619 831.4 c 2
 387.2 831.4 l 1
387.2 169.2 m 1
 387.2 673.2 l 1
 649 673.2 l 2
 937.2 673.2 1054.4 597.2 1054.4 416.8 c 0
 1054.4 239.8 942.2 169.2 682.6 169.2 c 2
 387.2 169.2 l 1
180.4 0 m 1
 689 0 l 2
 1062.8 0 1262 119.2 1262 409.8 c 0
 1262 628.2 1162 734 958.4 771.4 c 1
 1122 823 1195.4 918.8 1195.4 1103 c 0
 1195.4 1352.2 1014.4 1452.8 623 1452.8 c 2
 180.4 1452.8 l 1
 180.4 0 l 1
EndSplineSet
EndChar

StartChar: C
Encoding: 67 67 2
Width: 1427
VWidth: 0
Flags: HW
LayerCount: 2
UndoRedoHistory
Layer: 1
Undoes
EndUndoes
Redoes
EndRedoes
EndUndoRedoHistory
Fore
SplineSet
849.6 -22 m 0
 1040.2 -22 1218.4 28.2 1333.4 121.4 c 1
 1268 292.6 l 1
 1167.8 208.2 1024 158 861.8 158 c 0
 526.6 158 343.4 394.8 343.4 722.6 c 0
 343.4 1058.4 537.8 1297.8 871.8 1297.8 c 0
 1004.4 1297.8 1138.6 1247 1236.4 1170.8 c 1
 1319 1327.2 l 1
 1208.2 1412.4 1057.2 1477.8 859.2 1477.8 c 0
 416.8 1477.8 124.8 1169.6 124.8 723.6 c 0
 124.8 281.8 399.8 -22 849.6 -22 c 0
EndSplineSet
EndChar

StartChar: D
Encoding: 68 68 3
Width: 1567
VWidth: 0
Flags: HW
LayerCount: 2
UndoRedoHistory
Layer: 1
Undoes
EndUndoes
Redoes
EndRedoes
EndUndoRedoHistory
Fore
SplineSet
180.4 0 m 1
 611.4 0 l 2
 1140.4 0 1443.4 233 1443.4 729.6 c 0
 1443.4 1258.2 1110.2 1452.8 527 1452.8 c 2
 180.4 1452.8 l 1
 180.4 0 l 1
390 168.8 m 1
 390 1284 l 1
 552.8 1284 l 2
 992.8 1284 1227 1137.2 1227 726.6 c 0
 1227 351.8 1016.8 168.8 627.4 168.8 c 2
 390 168.8 l 1
EndSplineSet
EndChar

StartChar: E
Encoding: 69 69 4
Width: 1217
VWidth: 0
Flags: HW
LayerCount: 2
UndoRedoHistory
Layer: 1
Undoes
EndUndoes
Redoes
EndRedoes
EndUndoRedoHistory
Fore
SplineSet
180.4 0 m 1
 1113.4 0 l 1
 1113.4 168.8 l 1
 387.2 168.8 l 1
 387.2 660 l 1
 1025.4 660 l 1
 1025.4 826 l 1
 387.2 826 l 1
 387.2 1284 l 1
 1063.4 1284 l 1
 1063.4 1452.8 l 1
 180.4 1452.8 l 1
 180.4 0 l 1
EndSplineSet
EndChar

StartChar: F
Encoding: 70 70 5
Width: 1144
VWidth: 0
Flags: HW
LayerCount: 2
UndoRedoHistory
Layer: 1
Undoes
EndUndoes
Redoes
EndRedoes
EndUndoRedoHistory
Fore
SplineSet
180.4 0 m 1
 387.2 0 l 1
 387.2 665.8 l 1
 1007.8 665.8 l 1
 1007.8 831.8 l 1
 387.2 831.8 l 1
 387.2 1284 l 1
 1041.4 1284 l 1
 1041.4 1452.8 l 1
 180.4 1452.8 l 1
 180.4 0 l 1
EndSplineSet
EndChar

StartChar: G
Encoding: 71 71 6
Width: 1555
VWidth: 0
Flags: HW
LayerCount: 2
UndoRedoHistory
Layer: 1
Undoes
EndUndoes
Redoes
EndRedoes
EndUndoRedoHistory
Fore
SplineSet
876.6 -22 m 0
 1070.8 -22 1251.4 14.2 1391.2 79.8 c 1
 1391.2 763.4 l 1
 846.2 763.4 l 1
 846.2 602.8 l 1
 1190.4 602.8 l 1
 1190.4 205.6 l 1
 1108.4 172.4 1004.8 158 890.2 158 c 0
 540.8 158 340.8 362.8 340.8 708.8 c 0
 340.8 1054.6 545.8 1297.8 894.4 1297.8 c 0
 1045.2 1297.8 1189 1254 1290.6 1176.8 c 1
 1366.6 1322.6 l 1
 1243.8 1425 1085.8 1477.8 892.8 1477.8 c 0
 421.2 1477.8 124.8 1162.6 124.8 695.4 c 0
 124.8 245.8 408 -22 876.6 -22 c 0
EndSplineSet
EndChar

StartChar: H
Encoding: 72 72 7
Width: 1547
VWidth: 0
Flags: HW
LayerCount: 2
UndoRedoHistory
Layer: 1
Undoes
EndUndoes
Redoes
EndRedoes
EndUndoRedoHistory
Fore
SplineSet
180.4 0 m 1
 387.2 0 l 1
 387.2 658.4 l 1
 1164.8 658.4 l 1
 1164.8 0 l 1
 1367 0 l 1
 1367 1452.8 l 1
 1164.8 1452.8 l 1
 1164.8 833.2 l 1
 387.2 833.2 l 1
 387.2 1452.8 l 1
 180.4 1452.8 l 1
 180.4 0 l 1
EndSplineSet
EndChar

StartChar: I
Encoding: 73 73 8
Width: 582
VWidth: 0
Flags: HW
LayerCount: 2
UndoRedoHistory
Layer: 1
Undoes
EndUndoes
Redoes
EndRedoes
EndUndoRedoHistory
Fore
SplineSet
187.6 0 m 1
 394.4 0 l 1
 394.4 1452.8 l 1
 187.6 1452.8 l 1
 187.6 0 l 1
EndSplineSet
EndChar

StartChar: J
Encoding: 74 74 9
Width: 1097
VWidth: 0
Flags: HW
LayerCount: 2
UndoRedoHistory
Layer: 1
Undoes
EndUndoes
Redoes
EndRedoes
EndUndoRedoHistory
Fore
SplineSet
57.4 -114 m 1
 160.6 -169 268.2 -198.2 368.2 -198.2 c 0
 603 -198.2 793.8 -39.4 793.8 318.8 c 2
 793.8 1287.6 l 1
 1065 1287.6 l 1
 1065 1452.8 l 1
 183.6 1452.8 l 1
 183.6 1287.6 l 1
 587 1287.6 l 1
 587 317.2 l 2
 587 89.2 499.6 -14.6 353.6 -14.6 c 0
 286.8 -14.6 206.8 7.2 117.4 49.2 c 1
 57.4 -114 l 1
EndSplineSet
EndChar

StartChar: K
Encoding: 75 75 10
Width: 1287
VWidth: 0
Flags: HW
LayerCount: 2
UndoRedoHistory
Layer: 1
Undoes
EndUndoes
Redoes
EndRedoes
EndUndoRedoHistory
Fore
SplineSet
180.4 0 m 1
 387.2 0 l 1
 387.2 707.4 l 1
 1020 0 l 1
 1283.2 0 l 1
 599.4 767.6 l 1
 1245.6 1452.8 l 1
 994 1452.8 l 1
 387.2 806.4 l 1
 387.2 1452.8 l 1
 180.4 1452.8 l 1
 180.4 0 l 1
EndSplineSet
EndChar

StartChar: L
Encoding: 76 76 11
Width: 1093
VWidth: 0
Flags: HW
LayerCount: 2
UndoRedoHistory
Layer: 1
Undoes
EndUndoes
Redoes
EndRedoes
EndUndoRedoHistory
Fore
SplineSet
180.4 0 m 1
 1064.6 0 l 1
 1064.6 168.8 l 1
 387.2 168.8 l 1
 387.2 1452.8 l 1
 180.4 1452.8 l 1
 180.4 0 l 1
EndSplineSet
EndChar

StartChar: M
Encoding: 77 77 12
Width: 1967
VWidth: 0
Flags: HW
LayerCount: 2
UndoRedoHistory
Layer: 1
Undoes
EndUndoes
Redoes
EndRedoes
EndUndoRedoHistory
Fore
SplineSet
180.4 0 m 1
 386.4 0 l 1
 386.4 1198.4 l 1
 470.8 1014.8 l 1
 921.6 223.6 l 1
 1047.2 223.6 l 1
 1496.8 1002.8 l 1
 1586.4 1181.4 l 1
 1586.4 0 l 1
 1787.2 0 l 1
 1787.2 1452.8 l 1
 1540.4 1452.8 l 1
 1071.2 643.2 l 1
 986.6 479.6 l 1
 900.6 640.6 l 1
 440.4 1452.8 l 1
 180.4 1452.8 l 1
 180.4 0 l 1
EndSplineSet
EndChar

StartChar: N
Encoding: 78 78 13
Width: 1620
VWidth: 0
Flags: HW
LayerCount: 2
UndoRedoHistory
Layer: 1
Undoes
EndUndoes
Redoes
EndRedoes
EndUndoRedoHistory
Fore
SplineSet
180.4 0 m 1
 376 0 l 1
 376 1186.6 l 1
 467.6 1047.4 l 1
 1208 0 l 1
 1440 0 l 1
 1440 1452.8 l 1
 1245 1452.8 l 1
 1245 254.2 l 1
 1147.4 405.2 l 1
 410 1452.8 l 1
 180.4 1452.8 l 1
 180.4 0 l 1
EndSplineSet
EndChar

StartChar: O
Encoding: 79 79 14
Width: 1696
VWidth: 0
Flags: HW
LayerCount: 2
UndoRedoHistory
Layer: 1
Undoes
EndUndoes
Redoes
EndRedoes
EndUndoRedoHistory
Fore
SplineSet
848 -23.8 m 0
 1308 -23.8 1571.6 312 1571.6 727.2 c 0
 1571.6 1144.4 1308 1477.8 848 1477.8 c 0
 388 1477.8 124.8 1144.4 124.8 727.2 c 0
 124.8 312 388 -23.8 848 -23.8 c 0
848 156.2 m 0
 571.2 156.2 344.4 361.2 344.4 727 c 0
 344.4 1095.2 571.2 1297.8 848 1297.8 c 0
 1124.8 1297.8 1352 1095.2 1352 727 c 0
 1352 361.2 1124.8 156.2 848 156.2 c 0
EndSplineSet
EndChar

StartChar: P
Encoding: 80 80 15
Width: 1282
VWidth: 0
Flags: HW
LayerCount: 2
UndoRedoHistory
Layer: 1
Undoes
EndUndoes
Redoes
EndRedoes
EndUndoRedoHistory
Fore
SplineSet
390 736.4 m 1
 390 1284 l 1
 619.8 1284 l 2
 891.6 1284 999 1200.2 999 1011.2 c 0
 999 825.2 882.4 736.4 639.8 736.4 c 2
 390 736.4 l 1
180.4 0 m 1
 390 0 l 1
 390 565.8 l 1
 620.8 565.8 l 2
 1023.8 565.8 1216.6 710.4 1216.6 1013.2 c 0
 1216.6 1316 1034.6 1452.8 595.8 1452.8 c 2
 180.4 1452.8 l 1
 180.4 0 l 1
EndSplineSet
EndChar

StartChar: Q
Encoding: 81 81 16
Width: 1696
VWidth: 0
Flags: HW
LayerCount: 2
UndoRedoHistory
Layer: 1
Undoes
EndUndoes
Redoes
EndRedoes
EndUndoRedoHistory
Fore
SplineSet
1242.2 -423.2 m 1
 1382.2 -289.6 l 1
 1284.6 -198.6 1196.6 -95.6 1133.6 34 c 1
 941 -15 l 1
 1017 -177.6 1126 -306.6 1242.2 -423.2 c 1
EndSplineSet
Refer: 14 79 N 1 0 0 1 0 0 2
EndChar

StartChar: R
Encoding: 82 82 17
Width: 1350
VWidth: 0
Flags: HW
LayerCount: 2
UndoRedoHistory
Layer: 1
Undoes
EndUndoes
Redoes
EndRedoes
EndUndoRedoHistory
Fore
SplineSet
387.2 807.8 m 1
 387.2 1284 l 1
 647.4 1284 l 2
 856.4 1284 990 1242.2 990 1056.4 c 0
 990 870.2 845 807.8 636.8 807.8 c 2
 387.2 807.8 l 1
180.4 0 m 1
 387.2 0 l 1
 387.2 646.4 l 1
 628.4 646.4 l 2
 795.2 646.4 855.2 566.8 907.4 418.2 c 2
 1056 0 l 1
 1279.6 0 l 1
 1124.6 409.2 l 2
 1068.2 560.4 1021.6 666 892.8 708.6 c 1
 1084.4 758.4 1199.6 871.4 1199.6 1072 c 0
 1199.6 1380 947.4 1452.8 582.4 1452.8 c 2
 180.4 1452.8 l 1
 180.4 0 l 1
EndSplineSet
EndChar

StartChar: S
Encoding: 83 83 18
Width: 1263
VWidth: 0
Flags: HW
LayerCount: 2
UndoRedoHistory
Layer: 1
Undoes
EndUndoes
Redoes
EndRedoes
EndUndoRedoHistory
Fore
SplineSet
679.07810611 -22 m 0
 1009.07810611 -22 1154.07810611 165.2 1156.07810611 393.4 c 0
 1158.47810611 603.6 1065.07810611 721.4 692.27810611 833.8 c 0
 399.07810611 922.2 358.67810611 983.4 362.27810611 1105.6 c 0
 365.87810611 1229.6 455.67810611 1299.6 669.47810611 1299.6 c 0
 791.87810611 1299.6 929.27810611 1260 1046.87810611 1191.2 c 1
 1106.07810611 1353.4 l 1
 960.27810611 1444 797.27810611 1477.8 650.27810611 1477.8 c 0
 323.87810611 1477.8 149.67810611 1313.8 147.27810611 1089 c 0
 144.87810611 895.6 227.47810611 761 566.67810611 663.8 c 0
 916.87810611 562.4 951.27810611 494.4 951.27810611 394.6 c 0
 951.27810611 249.6 861.27810611 153.8 666.07810611 153.8 c 0
 525.67810611 153.8 342.87810611 205.4 193.87810611 305.8 c 1
 153.47810611 122.2 l 1
 289.47810611 34.2 498.27810611 -22 679.07810611 -22 c 0
EndSplineSet
EndChar

StartChar: T
Encoding: 84 84 19
Width: 1186
VWidth: 0
Flags: HW
LayerCount: 2
UndoRedoHistory
Layer: 1
Undoes
EndUndoes
Redoes
EndRedoes
EndUndoRedoHistory
Fore
SplineSet
489 0 m 1
 695.4 0 l 1
 695.4 1284 l 1
 1149.4 1284 l 1
 1149.4 1452.8 l 1
 37.2 1452.8 l 1
 37.2 1284 l 1
 489 1284 l 1
 489 0 l 1
EndSplineSet
EndChar

StartChar: U
Encoding: 85 85 20
Width: 1520
VWidth: 0
Flags: HW
LayerCount: 2
UndoRedoHistory
Layer: 1
Undoes
EndUndoes
Redoes
EndRedoes
EndUndoRedoHistory
Fore
SplineSet
772.6 -22 m 0
 1137.8 -22 1353.4 199.8 1354.6 553.8 c 1
 1354.6 1452.8 l 1
 1148.8 1452.8 l 1
 1148.8 541.4 l 2
 1148.8 301.4 1008.6 153.8 771 153.8 c 0
 516.6 153.8 372.4 291.2 372.4 548.4 c 2
 372.4 1452.8 l 1
 166 1452.8 l 1
 166 543.4 l 2
 166 177.4 388.6 -22 772.6 -22 c 0
EndSplineSet
EndChar

StartChar: V
Encoding: 86 86 21
Width: 1359
VWidth: 0
Flags: HW
LayerCount: 2
UndoRedoHistory
Layer: 1
Undoes
EndUndoes
Redoes
EndRedoes
EndUndoRedoHistory
Fore
SplineSet
573 0.6 m 1
 795.8 0.6 l 1
 1350.8 1452.8 l 1
 1127.4 1452.8 l 1
 755.2 446 l 1
 683.6 239.6 l 1
 610 447 l 1
 231.8 1452.8 l 1
 9 1452.8 l 1
 573 0.6 l 1
EndSplineSet
EndChar

StartChar: W
Encoding: 87 87 22
Width: 2145
VWidth: 0
Flags: HW
LayerCount: 2
UndoRedoHistory
Layer: 1
Undoes
EndUndoes
Redoes
EndRedoes
EndUndoRedoHistory
Fore
SplineSet
1466.4 0 m 1
 1682 0 l 1
 2116.2 1452.8 l 1
 1908.6 1452.8 l 1
 1628.4 455 l 1
 1574.4 268.4 l 1
 1514.4 451 l 1
 1169.8 1452.8 l 1
 989.6 1452.8 l 1
 642.4 455 l 1
 578 267.4 l 1
 528.4 455 l 1
 242.8 1452.8 l 1
 29.2 1452.8 l 1
 463.8 0.6 l 1
 680 0.6 l 1
 1074.2 1168.6 l 1
 1466.4 0 l 1
EndSplineSet
EndChar

StartChar: X
Encoding: 88 88 23
Width: 1339
VWidth: 0
Flags: HW
LayerCount: 2
UndoRedoHistory
Layer: 1
Undoes
EndUndoes
Redoes
EndRedoes
EndUndoRedoHistory
Fore
SplineSet
3.8 0 m 1
 235.8 0 l 1
 667.6 598.2 l 1
 1095.2 0 l 1
 1324.2 0 l 1
 802.4 732 l 1
 1325 1452.8 l 1
 1098.2 1452.8 l 1
 686.4 874.4 l 1
 285.2 1452.8 l 1
 46.8 1452.8 l 1
 552.8 743.8 l 1
 3.8 0 l 1
EndSplineSet
EndChar

StartChar: Y
Encoding: 89 89 24
Width: 1270
VWidth: 0
Flags: HW
LayerCount: 2
UndoRedoHistory
Layer: 1
Undoes
EndUndoes
Redoes
EndRedoes
EndUndoRedoHistory
Fore
SplineSet
523 0 m 1
 733.8 0 l 1
 733.8 583.8 l 1
 1264 1452.8 l 1
 1045.8 1452.8 l 1
 631.2 751.4 l 1
 229 1452.8 l 1
 6.4 1452.8 l 1
 523 581.2 l 1
 523 0 l 1
EndSplineSet
EndChar

StartChar: Z
Encoding: 90 90 25
Width: 1249
VWidth: 0
Flags: HW
LayerCount: 2
UndoRedoHistory
Layer: 1
Undoes
EndUndoes
Redoes
EndRedoes
EndUndoRedoHistory
Fore
SplineSet
95.2 0 m 1
 1160.4 0 l 1
 1160.4 168.8 l 1
 352 168.8 l 1
 1168.4 1328 l 1
 1168.4 1452.8 l 1
 126.8 1452.8 l 1
 126.8 1284 l 1
 910.4 1284 l 1
 95.2 134.4 l 1
 95.2 0 l 1
EndSplineSet
EndChar

StartChar: a
Encoding: 97 97 26
Width: 1241
VWidth: 0
Flags: HW
LayerCount: 2
UndoRedoHistory
Layer: 1
Undoes
EndUndoes
Redoes
EndRedoes
EndUndoRedoHistory
Fore
SplineSet
541.4 139.2 m 0
 394.4 139.2 294.4 262.2 294.4 442.4 c 0
 294.4 697.4 444.2 872.2 664.2 872.2 c 0
 733 872.2 808.2 858.2 849.8 836.8 c 1
 849.8 439.4 l 2
 849.8 267 725.2 139.2 541.4 139.2 c 0
518.8 -22 m 0
 669.6 -22 816.4 53.8 878.8 163.6 c 1
 903.4 64 1006.8 -5.6 1135.2 -5.6 c 1
 1187.2 162.6 l 1
 1104.6 162.6 1045 220.8 1045 304.8 c 2
 1045 939.6 l 1
 958.6 993.6 806.8 1035.2 671.2 1035.2 c 0
 327.2 1035.2 93.2 790.8 93.2 432.8 c 0
 93.2 162.8 263.6 -22 518.8 -22 c 0
EndSplineSet
EndChar

StartChar: ampersand
Encoding: 38 38 27
Width: 2148
VWidth: 0
Flags: HW
LayerCount: 2
UndoRedoHistory
Layer: 1
Undoes
EndUndoes
Redoes
EndRedoes
EndUndoRedoHistory
Fore
SplineSet
695.8 975.6 m 1
 671.2 998.2 649.2 1019.4 629 1040.6 c 0
 580.2 1093.2 532 1156.2 532 1253.6 c 0
 532 1371.2 625 1426.8 742.6 1426.8 c 0
 857.8 1426.8 952.6 1370.2 952.6 1253.6 c 0
 952.6 1223.6 944.8 1196 930 1169.4 c 0
 881.8 1081.8 786.8 1023.4 695.8 975.6 c 1
730.8 117.6 m 0
 674.2 117.6 622 125.4 574.8 141.2 c 0
 452.8 182 342.6 270.6 342.6 428 c 0
 342.6 474.2 351.4 515.6 369.2 552 c 0
 427.2 669.6 545.8 736 662.4 796 c 1
 907.8 553.4 l 2
 981.6 479.6 1061.4 395 1133.2 326.2 c 0
 1147.6 312.4 1156.8 305 1158.8 305 c 1
 1055 204.2 934.4 117.6 730.8 117.6 c 0
734.2 -35 m 0
 983.2 -35 1147 68.4 1274.4 192.8 c 1
 1370.4 100.8 1458 4.4 1616.4 -19.2 c 1
 1758 85.6 l 1
 1713.2 95.4 1673.4 105.2 1640 115.6 c 0
 1523.8 154 1454 216.4 1374.8 297.6 c 1
 1493.8 450.2 1582.4 662.2 1591.8 917 c 1
 1413.2 939.2 l 1
 1413.2 894.4 1409.2 849.6 1401.4 802.4 c 0
 1376.8 654.8 1322.2 521.4 1250.8 419.6 c 1
 807 872.8 l 1
 890.6 917.6 973.8 972.6 1034.8 1039 c 0
 1086.4 1094.2 1135.2 1166 1135.2 1264.4 c 0
 1135.2 1316.6 1124.4 1360.4 1100.8 1399.2 c 0
 1035.8 1506 904.4 1569.4 734.2 1569.4 c 0
 521.2 1569.4 347 1471 347 1258.4 c 0
 347 1221 352.4 1186.2 364.2 1155.2 c 0
 402.6 1050.4 481.8 979 555.6 905.2 c 1
 455.2 851.6 352 789.6 276.2 712.4 c 0
 207.4 642.6 150.2 553.4 150.2 423.6 c 0
 150.2 351.2 163.6 285.8 193.6 229.2 c 0
 282.6 60 477.4 -35 734.2 -35 c 0
EndSplineSet
EndChar

StartChar: asciicircum
Encoding: 94 94 28
Width: 1376
VWidth: 0
Flags: HW
LayerCount: 2
UndoRedoHistory
Layer: 1
Undoes
EndUndoes
Redoes
EndRedoes
EndUndoRedoHistory
Fore
SplineSet
148.4 558 m 1
 324.4 558 l 1
 677.2 1226.4 l 1
 1042.8 558 l 1
 1217.4 558 l 1
 729.6 1438.4 l 1
 628.6 1438.4 l 1
 148.4 558 l 1
EndSplineSet
EndChar

StartChar: asciitilde
Encoding: 126 126 29
Width: 1567
VWidth: 0
Flags: HW
LayerCount: 2
UndoRedoHistory
Layer: 1
Undoes
EndUndoes
Redoes
EndRedoes
EndUndoRedoHistory
Fore
SplineSet
332 502.2 m 1
 354.6 598.6 417.2 701 535.2 701 c 0
 557.4 701 582.4 696.6 610 688.2 c 0
 702 659.2 788.6 611 873.2 574 c 0
 918 553.8 973.6 529.2 1029.2 529.2 c 0
 1072 529.2 1110.4 535.6 1145.8 550.4 c 0
 1255 596.6 1320.4 695.6 1350.4 822 c 1
 1216.6 863.8 l 1
 1196.4 776.2 1137.4 673.4 1030.6 673.4 c 0
 1013.4 673.4 993.2 677.8 969.6 686.2 c 0
 883 718.2 797.4 766 710.8 800.4 c 0
 658.2 820.6 597.2 844.6 532.2 844.6 c 0
 487 844.6 446.6 837.2 410.2 821 c 0
 306.4 776.2 234.6 681.8 209 560.8 c 1
 332 502.2 l 1
EndSplineSet
EndChar

StartChar: asterisk
Encoding: 42 42 30
Width: 1499
VWidth: 0
Flags: HW
LayerCount: 2
UndoRedoHistory
Layer: 1
Undoes
EndUndoes
Redoes
EndRedoes
EndUndoRedoHistory
Fore
SplineSet
839.4 964.4 m 1
 974.2 1042.6 l 1
 759.2 1311.2 l 1
 1040.6 1405.2 l 1
 971.8 1538.6 l 1
 720.8 1409.2 l 1
 720.8 1728 l 1
 568.8 1728 l 1
 582.6 1621.2 598.8 1511 612.6 1403.8 c 1
 309 1535.6 l 1
 286.4 1391 l 1
 578.6 1307.8 l 1
 374 1053 l 1
 506.8 972.8 l 1
 670.6 1248.8 l 1
 839.4 964.4 l 1
EndSplineSet
EndChar

StartChar: at
Encoding: 64 64 31
Width: 1921
VWidth: 0
Flags: HW
LayerCount: 2
UndoRedoHistory
Layer: 1
Undoes
EndUndoes
Redoes
EndRedoes
EndUndoRedoHistory
Fore
SplineSet
864 365.8 m 0
 764.4 365.8 703.2 438.2 703.2 558.4 c 0
 703.2 767 845.2 962.2 1005.8 962.2 c 0
 1101.8 962.2 1150.4 900.4 1150.4 788.6 c 0
 1150.4 562.4 1020.6 365.8 864 365.8 c 0
992.4 -142.2 m 0
 1225 -142.2 1427.8 -68.6 1574.6 52.8 c 1
 1490.6 150.4 l 1
 1361.8 58.4 1197.8 -0.4 1007.8 -0.4 c 0
 628 -0.4 322.4 241.8 322.4 645.4 c 0
 322.4 1040.8 635.6 1299.8 996.6 1299.8 c 0
 1328.4 1299.8 1611.6 1102.2 1611.6 761.2 c 0
 1611.6 524.6 1491.6 331.2 1349.2 331.2 c 0
 1292.8 331.2 1263 364 1263 421.6 c 0
 1263 470.4 1317.6 692.2 1404 1071.4 c 1
 1242.8 1071.4 l 1
 1216.4 986.4 l 1
 1165.8 1060.6 1082.2 1102.4 983.8 1102.4 c 0
 744.6 1102.4 513.8 854.4 513.8 583.6 c 0
 513.8 392 628.8 222.6 829.4 222.6 c 0
 941 222.6 1034.4 278.6 1100.4 369.6 c 1
 1112.2 255.2 1202 203 1321 203 c 0
 1585.6 203 1783.8 457.4 1783.8 756.2 c 0
 1783.8 1187.8 1417.4 1440 1000.4 1440 c 0
 547.4 1440 137.4 1148.2 137.4 644.6 c 0
 137.4 164 525 -142.2 992.4 -142.2 c 0
EndSplineSet
EndChar

StartChar: b
Encoding: 98 98 32
Width: 1254
VWidth: 0
Flags: HW
LayerCount: 2
UndoRedoHistory
Layer: 1
Undoes
EndUndoes
Redoes
EndRedoes
EndUndoRedoHistory
Fore
SplineSet
641.4 139.2 m 0
 485.4 139.2 354.2 176 354.2 176 c 1
 354.2 654.4 l 1
 452.2 791.6 586 870.4 702.4 870.4 c 0
 851.2 870.4 960.8 752.4 960.8 539.6 c 0
 960.8 317 852.4 139.2 641.4 139.2 c 0
646.4 -22 m 0
 963 -22 1162.4 208.2 1162.4 538.2 c 0
 1162.4 846.2 974 1033.4 732.8 1033.4 c 0
 594.8 1033.4 451.2 969.2 354.2 848.2 c 1
 354.2 1535 l 1
 157.6 1505.4 l 1
 157.6 70.2 l 2
 158 70.2 373.8 -22 646.4 -22 c 0
EndSplineSet
EndChar

StartChar: backslash
Encoding: 92 92 33
Width: 925
VWidth: 0
Flags: HW
LayerCount: 2
UndoRedoHistory
Layer: 1
Undoes
EndUndoes
Redoes
EndRedoes
EndUndoRedoHistory
Fore
SplineSet
683.2 -129 m 1
 875 -129 l 1
 248 1449.8 l 1
 53 1449.8 l 1
 683.2 -129 l 1
EndSplineSet
EndChar

StartChar: bar
Encoding: 124 124 34
Width: 652
VWidth: 0
Flags: HW
LayerCount: 2
UndoRedoHistory
Layer: 1
Undoes
EndUndoes
Redoes
EndRedoes
EndUndoRedoHistory
Fore
SplineSet
240 -458.2 m 1
 408.2 -458.2 l 1
 408.2 1537.4 l 1
 240 1537.4 l 1
 240 -458.2 l 1
EndSplineSet
EndChar

StartChar: bracketleft
Encoding: 91 91 35
Width: 740
VWidth: 0
Flags: HW
LayerCount: 2
UndoRedoHistory
Layer: 1
Undoes
EndUndoes
Redoes
EndRedoes
EndUndoRedoHistory
Fore
SplineSet
213.4 -241 m 1
 608 -241 l 1
 608 -116.2 l 1
 414.8 -116.2 l 1
 414.8 1340.6 l 1
 607.4 1340.6 l 1
 607.4 1465.8 l 1
 213.4 1465.8 l 1
 213.4 -241 l 1
EndSplineSet
EndChar

StartChar: bracketright
Encoding: 93 93 36
Width: 818
VWidth: 0
Flags: HW
LayerCount: 2
UndoRedoHistory
Layer: 1
Undoes
EndUndoes
Redoes
EndRedoes
EndUndoRedoHistory
Fore
SplineSet
118.6 -248.2 m 1
 512 -248.2 l 1
 512 1458.6 l 1
 113.6 1458.6 l 1
 119.6 1333.4 l 1
 310.4 1333.4 l 1
 310.4 -123.4 l 1
 118.6 -123.4 l 1
 118.6 -248.2 l 1
EndSplineSet
EndChar

StartChar: c
Encoding: 99 99 37
Width: 1089
VWidth: 0
Flags: HW
LayerCount: 2
UndoRedoHistory
Layer: 1
Undoes
EndUndoes
Redoes
EndRedoes
EndUndoRedoHistory
Fore
SplineSet
642.8 -22.6 m 0
 774.6 -22.6 912 20 1027.4 108.8 c 1
 962 258.8 l 1
 872.2 179.6 762.2 141 660.2 141 c 0
 458 141 300.8 279.8 300.8 504.8 c 0
 300.8 728.4 467.8 869.6 663.6 869.6 c 0
 753 869.6 848.4 837.8 933 769.8 c 1
 997.4 914.4 l 1
 888.8 1001.8 765.8 1036.4 646.8 1036.4 c 0
 360 1036.4 99.2 828.4 99.2 501.4 c 0
 99.2 189.8 327.8 -22.6 642.8 -22.6 c 0
EndSplineSet
EndChar

StartChar: colon
Encoding: 58 58 38
Width: 704
VWidth: 0
Flags: HW
LayerCount: 2
UndoRedoHistory
Layer: 1
Undoes
EndUndoes
Redoes
EndRedoes
EndUndoRedoHistory
Fore
SplineSet
207.4 896.6 m 1
 439.6 896.6 l 1
 439.6 1121.4 l 1
 207.4 1121.4 l 1
 207.4 896.6 l 1
207.4 -14.6 m 1
 439.6 -14.6 l 1
 439.6 210.2 l 1
 207.4 210.2 l 1
 207.4 -14.6 l 1
EndSplineSet
EndChar

StartChar: comma
Encoding: 44 44 39
Width: 704
VWidth: 0
Flags: HW
LayerCount: 2
UndoRedoHistory
Layer: 1
Undoes
EndUndoes
Redoes
EndRedoes
EndUndoRedoHistory
Fore
SplineSet
102 -334 m 1
 242.2 -334 l 1
 416 161.4 l 1
 216.2 161.4 l 1
 102 -334 l 1
EndSplineSet
EndChar

StartChar: d
Encoding: 100 100 40
Width: 1279
VWidth: 0
Flags: HW
LayerCount: 2
UndoRedoHistory
Layer: 1
Undoes
EndUndoes
Redoes
EndRedoes
EndUndoRedoHistory
Fore
SplineSet
590.2 139.2 m 0
 415 139.2 294.8 284.8 294.8 501 c 0
 294.8 714.8 401.8 872.2 608.2 872.2 c 0
 721.2 872.2 840.8 817.6 905 732 c 1
 905 527.6 l 2
 905 302.8 802.8 139.2 590.2 139.2 c 0
571 -22 m 0
 728.4 -22 861.4 49.2 918.6 164.2 c 1
 925 107 957.8 34.8 994.2 -13.4 c 1
 1184.2 17.6 l 1
 1138.4 84 1101 193.6 1101 389.6 c 2
 1101 1533.2 l 1
 904.4 1516 l 1
 904.4 921.8 l 1
 810 999.4 706.6 1035.2 586.6 1035.2 c 0
 274.8 1035.2 93.2 808 93.2 495 c 0
 93.2 184.4 284.4 -22 571 -22 c 0
EndSplineSet
EndChar

StartChar: dollar
Encoding: 36 36 41
Width: 1587
VWidth: 0
Flags: HW
LayerCount: 2
UndoRedoHistory
Layer: 1
Undoes
EndUndoes
Redoes
EndRedoes
EndUndoRedoHistory
Fore
SplineSet
610.8 834.4 m 1
 496.2 877.2 390.8 936.2 390.8 1092.6 c 0
 390.8 1235.8 484.8 1326.4 613.2 1342.6 c 1
 610.8 834.4 l 1
741.2 99.4 m 1
 745.6 607 l 1
 860.2 557.8 1005.8 501.8 1005.8 342.4 c 0
 1005.8 307.4 998 276.4 984.2 248.4 c 0
 941.8 165.2 852.4 114.6 741.2 99.4 c 1
615.2 -224.4 m 1
 747 -224.4 l 1
 743.6 -52.2 l 1
 804.6 -46.4 863.2 -35 917.8 -14.8 c 0
 1065.4 38.8 1196.8 148.6 1196.8 345.4 c 0
 1196.8 469.8 1152 544.6 1081.6 605.6 c 0
 991.6 683.8 875 732 743.6 783.2 c 1
 745.6 1349 l 1
 877 1345 980.8 1308.6 1056 1241.2 c 1
 1108.2 1378 l 1
 1022.6 1450.8 895.2 1495.6 744.6 1498.6 c 1
 741.2 1644.2 l 1
 608.8 1644.2 l 1
 613.2 1497 l 1
 492.2 1487.6 389.4 1432.6 318.6 1366.2 c 0
 250.2 1301.2 188.6 1204.8 188.6 1079.4 c 0
 188.6 1019.8 200.4 969.2 222.6 926.8 c 0
 298.8 785.6 459.2 721.6 613.2 652.8 c 1
 609.4 95.4 l 1
 491.8 100.8 389.8 145 310.2 198.2 c 1
 258 54.6 l 1
 353 -13.8 462.2 -54.6 610.8 -57.6 c 1
 615.2 -224.4 l 1
EndSplineSet
EndChar

StartChar: e
Encoding: 101 101 42
Width: 1107
VWidth: 0
Flags: HW
LayerCount: 2
UndoRedoHistory
Layer: 1
Undoes
EndUndoes
Redoes
EndRedoes
EndUndoRedoHistory
Fore
SplineSet
300.6 501.2 m 1
 299.4 510.8 298.8 525.8 298.8 534.2 c 0
 300.8 755.2 461 876.6 624.2 876.6 c 0
 731.2 876.6 795.4 822.4 795.4 741.8 c 0
 795.4 599.6 596.2 530.8 300.6 501.2 c 1
633 -22 m 0
 789.8 -22 951.4 43 1056.6 144.4 c 1
 971.6 276 l 1
 896.2 196.4 766.4 139.2 634.6 139.2 c 0
 492.2 139.2 357.4 227.8 317.4 361.4 c 1
 711.8 394.6 988 504.4 988 742.2 c 0
 988 911.2 842.8 1035.2 621.2 1035.2 c 0
 297.4 1035.2 93.2 794.6 93.2 509.2 c 0
 93.2 186.2 317 -22 633 -22 c 0
EndSplineSet
EndChar

StartChar: eight
Encoding: 56 56 43
Width: 1250
VWidth: 0
Flags: HW
LayerCount: 2
UndoRedoHistory
Layer: 1
Undoes
EndUndoes
Redoes
EndRedoes
EndUndoRedoHistory
Fore
SplineSet
637.6 849.2 m 1
 492.6 875.4 373 955.8 373 1107.2 c 0
 373 1236.6 482.8 1313 637.6 1313 c 0
 781.2 1313 901 1247.6 901 1107.2 c 0
 901 955.8 781.8 875.4 637.6 849.2 c 1
637.6 145.8 m 0
 472 145.8 345.4 225.4 345.4 386.4 c 0
 345.4 541.8 480.4 639 637.6 669.8 c 1
 781.8 641 929 554.6 929 386.4 c 0
 929 233.4 812.117829964 145.8 637.6 145.8 c 0
635.6 -22.6 m 0
 917.678080616 -22.6 1139.6 97.4 1139.6 375.8 c 0
 1139.6 589.6 1004.2 710.8 840.8 763.8 c 1
 986 812.8 1104.6 925.6 1104.6 1111.8 c 0
 1104.6 1325.4 923.2 1477.8 635.6 1477.8 c 0
 384.6 1477.8 167 1365.8 167 1111.8 c 0
 167 921.6 284.4 812.8 429.6 763.8 c 1
 267 710.8 131.2 589.6 131.2 375.8 c 0
 131.2 129.8 342.061898529 -22.6 635.6 -22.6 c 0
EndSplineSet
EndChar

StartChar: equal
Encoding: 61 61 44
Width: 1569
VWidth: 0
Flags: HW
LayerCount: 2
UndoRedoHistory
Layer: 1
Undoes
EndUndoes
Redoes
EndRedoes
EndUndoRedoHistory
Fore
SplineSet
256.6 774.2 m 1
 1303.6 774.2 l 1
 1303.6 912.6 l 1
 256.6 912.6 l 1
 256.6 774.2 l 1
257.6 369.4 m 1
 1304.2 369.4 l 1
 1304.2 506 l 1
 257.6 506 l 1
 257.6 369.4 l 1
EndSplineSet
EndChar

StartChar: exclam
Encoding: 33 33 45
Width: 961
VWidth: 0
Flags: HW
LayerCount: 2
UndoRedoHistory
Layer: 1
Undoes
EndUndoes
Redoes
EndRedoes
EndUndoRedoHistory
Fore
SplineSet
375.8 431 m 1
 479 431 l 1
 546.6 1555.2 l 1
 308.8 1555.2 l 1
 375.8 431 l 1
432.4 -3.6 m 0
 508.2 -3.6 573.2 50.6 573.2 133 c 0
 573.2 209.8 518.8 270.6 433.4 270.6 c 0
 357.6 270.6 292.6 216.8 292.6 134.8 c 0
 292.6 57.6 346.6 -3.6 432.4 -3.6 c 0
EndSplineSet
EndChar

StartChar: f
Encoding: 102 102 46
Width: 756
VWidth: 0
Flags: HW
LayerCount: 2
UndoRedoHistory
Layer: 1
Undoes
EndUndoes
Redoes
EndRedoes
EndUndoRedoHistory
Fore
SplineSet
117.8 -450.6 m 1
 373.2 -417.6 473.8 -265.8 473.8 -11 c 2
 473.8 889 l 1
 707.4 889 l 1
 707.4 1014 l 1
 473.8 1014 l 1
 473.8 1148.6 l 2
 473.8 1299.2 531.8 1359 643.6 1359 c 0
 676 1359 710.4 1353.4 745.4 1344.4 c 1
 769.4 1474.2 l 1
 709.8 1495.8 650.6 1507.2 595 1507.2 c 0
 400.2 1507.2 278.2 1396.2 278.2 1148.8 c 2
 278.2 1014 l 1
 78.6 1014 l 1
 78.6 889 l 1
 278.2 889 l 1
 278.2 -28 l 2
 278.2 -178.4 219.2 -270.2 96.8 -299.2 c 1
 117.8 -450.6 l 1
EndSplineSet
EndChar

StartChar: five
Encoding: 53 53 47
Width: 1250
VWidth: 0
Flags: HW
LayerCount: 2
UndoRedoHistory
Layer: 1
Undoes
EndUndoes
Redoes
EndRedoes
EndUndoRedoHistory
Fore
SplineSet
186.2 167 m 1
 277 43.4 422.2 -27 600 -26.6 c 0
 883.6 -25.4 1120 138 1120 442.6 c 0
 1120 731 933 914.2 670.2 914.6 c 0
 569.6 915 486.6 885.8 418.4 835.8 c 1
 432.8 1268.6 l 1
 1032 1268.6 l 1
 1032 1435.2 l 1
 242.2 1435.2 l 1
 242.2 640.8 l 1
 417.8 644.4 l 1
 471.4 710 551.8 748.4 642.2 748 c 0
 802.2 747.2 916.6 640.6 916.6 445.6 c 0
 916.6 284 795.2 145.8 596.4 146.2 c 0
 466 146.6 357.8 208 270.8 314.6 c 1
 186.2 167 l 1
EndSplineSet
EndChar

StartChar: four
Encoding: 52 52 48
Width: 1250
VWidth: 0
Flags: HW
LayerCount: 2
UndoRedoHistory
Layer: 1
Undoes
EndUndoes
Redoes
EndRedoes
EndUndoRedoHistory
Fore
SplineSet
288 497.8 m 1
 664.4 1078.4 l 1
 759.6 1236 l 1
 759.6 497.8 l 1
 288 497.8 l 1
759.6 0 m 1
 966.4 0 l 1
 966.4 339.4 l 1
 1168.8 339.4 l 1
 1168.8 497.8 l 1
 966.4 497.8 l 1
 966.4 1452.8 l 1
 728 1452.8 l 1
 81.4 490.2 l 1
 81.4 339.4 l 1
 759.6 339.4 l 1
 759.6 0 l 1
EndSplineSet
EndChar

StartChar: g
Encoding: 103 103 49
Width: 1182
VWidth: 0
Flags: HW
LayerCount: 2
UndoRedoHistory
Layer: 1
Undoes
EndUndoes
Redoes
EndRedoes
EndUndoRedoHistory
Fore
SplineSet
541.8 139.2 m 0
 394.8 139.2 294.8 262.2 294.8 442.4 c 0
 294.8 697.4 444.6 872.2 664.6 872.2 c 0
 733.4 872.2 808.6 859.4 850.2 838 c 1
 850.2 439.4 l 2
 850.2 267 725.6 139.2 541.8 139.2 c 0
521.4 -513.6 m 0
 835.6 -513.6 1045.4 -315.2 1045.4 -16.6 c 2
 1045.4 939.6 l 1
 959 993.6 807.2 1035.2 671.6 1035.2 c 0
 327.6 1035.2 93.2 790.4 93.2 432.4 c 0
 93.2 162.4 264 -22 519.2 -22 c 0
 646.8 -22 771.6 32.6 844.2 115.8 c 1
 844.2 -32.4 l 2
 844.2 -220 704.8 -345.4 495.4 -345.4 c 0
 406.4 -345.4 288.4 -315.6 200.8 -272 c 1
 170.6 -443.8 l 1
 272 -486.4 412.4 -513.6 521.4 -513.6 c 0
EndSplineSet
EndChar

StartChar: grave
Encoding: 96 96 50
Width: 773
VWidth: 0
Flags: HW
LayerCount: 2
UndoRedoHistory
Layer: 1
Undoes
EndUndoes
Redoes
EndRedoes
EndUndoRedoHistory
Fore
SplineSet
290.2 1528.8 m 1
 443.2 1528.8 l 1
 196.6 1848 l 1
 -41 1848 l 1
 290.2 1528.8 l 1
EndSplineSet
EndChar

StartChar: greater
Encoding: 62 62 51
Width: 1456
VWidth: 0
Flags: HW
LayerCount: 2
UndoRedoHistory
Layer: 1
Undoes
EndUndoes
Redoes
EndRedoes
EndUndoRedoHistory
Fore
SplineSet
241.8 75.6 m 1
 1250.2 521.8 l 1
 1250.2 610.8 l 1
 247.2 1094 l 1
 247.2 942 l 1
 1029.6 571.8 l 1
 241.8 229.2 l 1
 241.8 75.6 l 1
EndSplineSet
EndChar

StartChar: h
Encoding: 104 104 52
Width: 1264
VWidth: 0
Flags: HW
LayerCount: 2
UndoRedoHistory
Layer: 1
Undoes
EndUndoes
Redoes
EndRedoes
EndUndoRedoHistory
Fore
SplineSet
1172 -26.6 m 1
 1191.6 133 l 1
 1068 111.4 1068.6 178.2 1069.2 319.6 c 2
 1070.4 567.8 l 2
 1072.2 877.4 937.6 1035.2 701.6 1035.2 c 0
 570 1035.2 434.8 978.8 359.6 886.6 c 1
 359.6 1534 l 1
 161.6 1509.2 l 1
 161.6 0 l 1
 359.6 0 l 1
 359.6 546.4 l 2
 359.6 751.4 498.6 865.8 661.4 865.8 c 0
 810.6 865.8 874.6 763.2 874.6 556.8 c 2
 873.4 260.4 l 2
 872.2 39.2 935.2 -66.6 1172 -26.6 c 1
EndSplineSet
EndChar

StartChar: hyphen
Encoding: 45 45 53
Width: 949
VWidth: 0
Flags: HW
LayerCount: 2
UndoRedoHistory
Layer: 1
Undoes
EndUndoes
Redoes
EndRedoes
EndUndoRedoHistory
Fore
SplineSet
102.4 637.8 m 1
 673.6 637.8 l 1
 673.6 774.4 l 1
 102.4 774.4 l 1
 102.4 637.8 l 1
EndSplineSet
EndChar

StartChar: i
Encoding: 105 105 54
Width: 658
VWidth: 0
Flags: HW
LayerCount: 2
UndoRedoHistory
Layer: 1
Undoes
EndUndoes
Redoes
EndRedoes
EndUndoRedoHistory
Fore
SplineSet
268.6 1217.4 m 0
 340.6 1217.4 401 1262.4 401 1338.4 c 0
 401 1414.4 341.2 1460.8 270 1460.8 c 0
 197.6 1460.8 137.6 1415.8 137.6 1339.4 c 0
 137.6 1263 197 1217.4 268.6 1217.4 c 0
662.6 30.8 m 1
 636.4 175.8 l 1
 498.4 126.8 363.8 109.6 363.8 295.8 c 2
 363.8 1014 l 1
 167.8 1014 l 1
 167.8 268 l 2
 167.8 -20.2 431.4 -67.4 662.6 30.8 c 1
EndSplineSet
EndChar

StartChar: j
Encoding: 106 106 55
Width: 601
VWidth: 0
Flags: HW
LayerCount: 2
UndoRedoHistory
Layer: 1
Undoes
EndUndoes
Redoes
EndRedoes
EndUndoRedoHistory
Fore
SplineSet
322.4 1214.6 m 0
 394.8 1214.6 455.2 1260 455.2 1335.6 c 0
 455.2 1412.4 395.4 1458.8 323.8 1458.8 c 0
 251.8 1458.8 191.4 1413 191.4 1336.6 c 0
 191.4 1261 251.2 1214.6 322.4 1214.6 c 0
65.4 -477 m 0
 285.6 -477 425 -333.6 425 1.8 c 2
 425 1014 l 1
 229 1014 l 1
 229 -4.6 l 2
 229 -234.6 150 -316.8 35.4 -316.8 c 0
 8.2 -316.8 -33.6 -309.2 -86.2 -296.6 c 1
 -110.8 -451 l 1
 -48 -467.8 10.4 -477 65.4 -477 c 0
EndSplineSet
EndChar

StartChar: k
Encoding: 107 107 56
Width: 1153
VWidth: 0
Flags: HW
LayerCount: 2
UndoRedoHistory
Layer: 1
Undoes
EndUndoes
Redoes
EndRedoes
EndUndoRedoHistory
Fore
SplineSet
1080 -48.2 m 1
 1179.4 103.8 l 1
 1067.6 104.4 992.8 166 912.2 277.2 c 1
 725.2 542.8 l 1
 1027.4 961.2 l 1
 845.2 1010.4 l 1
 354.4 326 l 1
 354.4 1528.8 l 1
 159.2 1502.8 l 1
 159.2 71.2 l 2
 159.2 -32 272.2 -56.2 337 24.6 c 1
 610 397.6 l 1
 770.6 161.8 l 1
 862.2 30.2 977.2 -36.8 1080 -48.2 c 1
EndSplineSet
EndChar

StartChar: l
Encoding: 108 108 57
Width: 709
VWidth: 0
Flags: HW
LayerCount: 2
UndoRedoHistory
Layer: 1
Undoes
EndUndoes
Redoes
EndRedoes
EndUndoRedoHistory
Fore
SplineSet
709 178.4 m 1
 651.8 156.2 582.4 141.2 530.2 141.2 c 0
 431.2 141.2 362.4 191.8 362.4 316.4 c 2
 362.4 1537.6 l 1
 166.4 1508 l 1
 166.4 300.4 l 2
 166.4 83 307.4 -15.2 493.6 -15.2 c 0
 568.8 -15.2 651.2 1.6 734 32.2 c 1
 709 178.4 l 1
EndSplineSet
EndChar

StartChar: less
Encoding: 60 60 58
Width: 1901
VWidth: 0
Flags: HW
LayerCount: 2
UndoRedoHistory
Layer: 1
Undoes
EndUndoes
Redoes
EndRedoes
EndUndoRedoHistory
Fore
SplineSet
1287.8 62.4 m 1
 1287.8 214.4 l 1
 504.4 565.6 l 1
 1291.8 927.2 l 1
 1291.8 1079.4 l 1
 285.8 608.6 l 1
 285.8 521.6 l 1
 1287.8 62.4 l 1
EndSplineSet
EndChar

StartChar: m
Encoding: 109 109 59
Width: 1957
VWidth: 0
Flags: HW
LayerCount: 2
UndoRedoHistory
Layer: 1
Undoes
EndUndoes
Redoes
EndRedoes
EndUndoRedoHistory
Fore
SplineSet
1891 -11.4 m 1
 1910.2 148.2 l 1
 1780.6 139.2 1764.4 205.4 1765 346.8 c 2
 1765 567.8 l 1
 1766.8 877.4 1623 1035.2 1387 1035.2 c 0
 1260.4 1035.2 1102.4 981.6 1024.4 828.2 c 1
 968.2 965 855.8 1035.2 702.4 1035.2 c 0
 561.8 1035.2 430.4 974.2 351.2 859.8 c 1
 340 919 294.6 981 256.4 1012.8 c 1
 75.2 928 l 1
 132 869.4 184.6 773.4 184.6 663.4 c 2
 184.6 0 l 1
 382.6 0 l 1
 382.6 567 l 1
 391.6 772.8 528.4 865.8 670.2 865.8 c 0
 810.6 865.8 879.2 771.2 879.2 556.8 c 2
 879.2 0 l 1
 1075 0 l 1
 1075 548 l 2
 1075 765 1223.6 865.8 1360.8 865.8 c 0
 1509.2 865.8 1569.2 763.2 1569.2 556.8 c 2
 1569.2 287.6 l 1
 1568 66.4 1653.8 -39.4 1891 -11.4 c 1
EndSplineSet
EndChar

StartChar: n
Encoding: 110 110 60
Width: 1288
VWidth: 0
Flags: HW
LayerCount: 2
UndoRedoHistory
Layer: 1
Undoes
EndUndoes
Redoes
EndRedoes
EndUndoRedoHistory
Fore
SplineSet
1240.6 146.2 m 1
 1232.2 145.4 1225 145 1217.8 145 c 0
 1120 145 1090.8 200.4 1090.8 332.8 c 2
 1090.8 579.2 l 2
 1090.8 888.8 946.8 1035.2 710.8 1035.2 c 0
 562.2 1035.2 430.2 968.6 363.8 863 c 1
 351 917.8 306.6 981.6 267.8 1012.8 c 1
 87.8 928 l 1
 141 873.6 197.2 773.4 197.2 663.4 c 2
 197.2 0 l 1
 395.2 0 l 1
 395.2 567 l 1
 404.2 772.8 541.8 865.8 675.6 865.8 c 0
 816 865.8 895.6 771.6 895.6 565.2 c 2
 895.6 303.6 l 2
 895.6 101.2 952.8 -18.8 1156.8 -18.8 c 0
 1176.4 -18.8 1197.6 -17.2 1221.4 -13.4 c 1
 1240.6 146.2 l 1
EndSplineSet
EndChar

StartChar: nine
Encoding: 57 57 61
Width: 1250
VWidth: 0
Flags: HW
LayerCount: 2
UndoRedoHistory
Layer: 1
Undoes
EndUndoes
Redoes
EndRedoes
EndUndoRedoHistory
Fore
SplineSet
638.8 671 m 0
 429.2 671 321.6 813.4 321.6 995.6 c 0
 321.6 1195 455 1308.8 639.8 1308.8 c 0
 837.6 1308.8 954.8 1192.4 954.8 993.6 c 0
 954.8 794.2 831.2 671 638.8 671 c 0
556.8 -98.4 m 1
 988 558 l 2
 1075.8 691.8 1142.6 860.6 1142.6 986.2 c 0
 1142.6 1269 944.4 1477.8 629 1477.8 c 0
 353.6 1477.8 123.6 1294.4 123.6 990.6 c 0
 123.6 721.6 315.2 511.4 612 511.4 c 0
 701.2 511.4 756.6 545.4 766.2 551.4 c 1
 392.4 -7.6 l 1
 556.8 -98.4 l 1
EndSplineSet
EndChar

StartChar: numbersign
Encoding: 35 35 62
Width: 1623
VWidth: 0
Flags: HW
LayerCount: 2
UndoRedoHistory
Layer: 1
Undoes
EndUndoes
Redoes
EndRedoes
EndUndoRedoHistory
Fore
SplineSet
508.6 667.4 m 1
 566.6 962 l 1
 845.6 962 l 1
 791 667.4 l 1
 508.6 667.4 l 1
241 78.4 m 1
 397.4 78.4 l 1
 485 533 l 1
 764 533 l 1
 678.8 78.4 l 1
 833.8 78.4 l 1
 922.4 533 l 1
 1200.4 533 l 1
 1215.6 667.4 l 1
 946 667.4 l 1
 1000.6 962 l 1
 1267.8 962 l 1
 1283 1094.4 l 1
 1025.2 1094.4 l 1
 1108.8 1533.2 l 1
 952.4 1533.2 l 1
 870.8 1094.4 l 1
 591.8 1094.4 l 1
 674.4 1533.2 l 1
 518 1533.2 l 1
 433.4 1094.4 l 1
 145 1094.4 l 1
 130.8 962 l 1
 410.2 962 l 1
 392 862.6 373.8 768.2 356.6 667.4 c 1
 73.2 667.4 l 1
 61.4 533 l 1
 331 533 l 1
 241 78.4 l 1
EndSplineSet
EndChar

StartChar: o
Encoding: 111 111 63
Width: 1252
VWidth: 0
Flags: HW
LayerCount: 2
UndoRedoHistory
Layer: 1
Undoes
EndUndoes
Redoes
EndRedoes
EndUndoRedoHistory
Fore
SplineSet
629.2 -22 m 0
 944.4 -22 1153.6 189.6 1153.6 506.6 c 0
 1153.6 824.4 943.6 1035.2 628.2 1035.2 c 0
 310.8 1035.2 99.2 823 99.2 505 c 0
 99.2 188.6 311.2 -22 629.2 -22 c 0
630 139.2 m 0
 432.4 139.2 300.4 285 300.4 503.8 c 0
 300.4 724.4 432 872.2 628.6 872.2 c 0
 823.2 872.2 952.4 725 952.4 505 c 0
 952.4 285.6 823.6 139.2 630 139.2 c 0
EndSplineSet
EndChar

StartChar: one
Encoding: 49 49 64
Width: 1250
VWidth: 0
Flags: HW
LayerCount: 2
UndoRedoHistory
Layer: 1
Undoes
EndUndoes
Redoes
EndRedoes
EndUndoRedoHistory
Fore
SplineSet
625.6 0 m 1
 836 0 l 1
 836 1452.8 l 1
 632.2 1452.8 l 1
 564.6 1401.8 435 1323.6 319 1271 c 1
 367.6 1124 l 1
 473.6 1168 559.6 1215.6 625.6 1266 c 1
 625.6 0 l 1
EndSplineSet
EndChar

StartChar: p
Encoding: 112 112 65
Width: 1287
VWidth: 0
Flags: HW
LayerCount: 2
UndoRedoHistory
Layer: 1
Undoes
EndUndoes
Redoes
EndRedoes
EndUndoRedoHistory
Fore
SplineSet
680 139.2 m 0
 554 139.2 430.6 190.4 372 273.6 c 1
 372 427.2 l 2
 372 699 507 872.2 708.2 872.2 c 0
 886.6 872.2 991 736.4 991 513.8 c 0
 991 283.2 871.2 139.2 680 139.2 c 0
174.6 -472.6 m 1
 372.6 -461.8 l 1
 373.4 83.8 l 1
 449.8 18.6 583.4 -22 708 -22 c 0
 1004 -22 1192.6 188.4 1192.6 519.8 c 0
 1192.6 841.2 1008.2 1035.2 724 1035.2 c 0
 576.2 1035.2 424.4 963 353.4 833.6 c 1
 343.8 909 296.6 973.2 247 1013.2 c 1
 67.6 931.2 l 1
 113.8 877.8 174.6 812.4 174.6 674.8 c 2
 174.6 -472.6 l 1
EndSplineSet
EndChar

StartChar: percent
Encoding: 37 37 66
Width: 2589
VWidth: 0
Flags: HW
LayerCount: 2
UndoRedoHistory
Layer: 1
Undoes
EndUndoes
Redoes
EndRedoes
EndUndoRedoHistory
Fore
SplineSet
510 -11.8 m 1
 674.8 -11.8 l 1
 1642.6 1529.6 l 1
 1477.2 1529.6 l 1
 510 -11.8 l 1
1592.4 85.6 m 0
 1554 85.6 1519.6 93 1492 108.2 c 0
 1409.4 152 1367 244 1367 368.4 c 0
 1367 525.4 1436.4 659.2 1594.8 659.2 c 0
 1750.8 659.2 1817.2 532.8 1817.2 375.4 c 0
 1817.2 219.4 1749.8 85.6 1592.4 85.6 c 0
600 848.2 m 0
 441.6 848.2 373.2 974.6 373.2 1133 c 0
 373.2 1290 442.6 1421.4 601 1421.4 c 0
 638.4 1421.4 672.8 1414 700.8 1399.2 c 0
 782.6 1355.4 824.8 1262.4 824.8 1137 c 0
 824.8 981 756 848.2 600 848.2 c 0
1589.4 -35 m 0
 1648 -35 1700.6 -24.6 1747.8 -3 c 0
 1879.2 56.6 1971.6 186.4 1971.6 374.4 c 0
 1971.6 616 1838.8 779.8 1595.8 779.8 c 0
 1537.2 779.8 1483.6 769.4 1436.4 747.8 c 0
 1304 688.2 1213 558 1213 369 c 0
 1213 312 1221.4 258.8 1238.6 210 c 0
 1287.8 68.4 1401.4 -35 1589.4 -35 c 0
596 727.2 m 0
 654.6 727.2 706.8 738.4 754 759.6 c 0
 885.4 819.6 977.4 948 977.4 1136 c 0
 977.4 1377.6 845 1541.4 602 1541.4 c 0
 543.4 1541.4 489.8 1531.6 442.6 1510.4 c 0
 310.2 1451.4 219.2 1320 219.2 1131.6 c 0
 219.2 1075 227.6 1021.8 244.8 972.6 c 0
 292.6 831.4 408 727.2 596 727.2 c 0
EndSplineSet
EndChar

StartChar: period
Encoding: 46 46 67
Width: 704
VWidth: 0
Flags: HW
LayerCount: 2
UndoRedoHistory
Layer: 1
Undoes
EndUndoes
Redoes
EndRedoes
EndUndoRedoHistory
Fore
SplineSet
277 -9.6 m 0
 347.8 -9.6 407.8 40.2 407.8 117.4 c 0
 407.8 189.6 357.4 245.8 277.6 245.8 c 0
 206.8 245.8 146.8 195.6 146.8 119.2 c 0
 146.8 47 197.2 -9.6 277 -9.6 c 0
EndSplineSet
EndChar

StartChar: plus
Encoding: 43 43 68
Width: 1775
VWidth: 0
Flags: HW
LayerCount: 2
UndoRedoHistory
Layer: 1
Undoes
EndUndoes
Redoes
EndRedoes
EndUndoRedoHistory
Fore
SplineSet
678.8 80.8 m 1
 838.2 80.8 l 1
 838.2 533 l 1
 1320.8 533 l 1
 1320.8 682 l 1
 840.2 682 l 1
 840.2 1134.6 l 1
 681.8 1134.6 l 1
 681.8 682 l 1
 199.6 682 l 1
 199.6 533 l 1
 678.8 533 l 1
 678.8 80.8 l 1
EndSplineSet
EndChar

StartChar: q
Encoding: 113 113 69
Width: 1307
VWidth: 0
Flags: HW
LayerCount: 2
UndoRedoHistory
Layer: 1
Undoes
EndUndoes
Redoes
EndRedoes
EndUndoRedoHistory
Fore
SplineSet
596.8 139.6 m 0
 396.2 139.6 296 290 296 500.6 c 0
 296 715.6 403.6 872.2 611 872.2 c 0
 785.6 872.2 893 765.8 910.2 610.6 c 1
 910.2 393.6 l 1
 879.6 238 747.6 139.6 596.8 139.6 c 0
1100.6 -563 m 2
 1446.2 -381.4 l 1
 1365.8 -232.6 l 1
 1108.2 -366.6 l 1
 1108.2 731.8 l 2
 1108.2 793.6 1116 976 1119 996.4 c 1
 940 1003.6 l 1
 925.8 894 l 1
 891.6 952.2 800.2 1035.2 593.4 1035.2 c 0
 287.8 1035.2 94.4 807 94.4 497.6 c 0
 94.4 190.2 282.2 -22 576.2 -22 c 0
 713 -22 832.2 27.4 910.2 122.8 c 1
 910.2 -442 l 2
 910.2 -543.4 1002 -615 1100.6 -563 c 2
EndSplineSet
EndChar

StartChar: question
Encoding: 63 63 70
Width: 1099
VWidth: 0
Flags: HW
LayerCount: 2
UndoRedoHistory
Layer: 1
Undoes
EndUndoes
Redoes
EndRedoes
EndUndoRedoHistory
Fore
SplineSet
454.8 0 m 0
 522.8 0 580.8 48.6 580.8 122.2 c 0
 580.8 191.2 532.8 245.8 456.2 245.8 c 0
 388.2 245.8 329.8 197.2 329.8 123.6 c 0
 329.8 54.6 377.8 0 454.8 0 c 0
392.6 367.2 m 1
 513.2 367.2 l 1
 510.8 534 684.4 562.8 684.4 719 c 0
 684.4 993.2 865.2 1060.2 777.2 1267.8 c 1
 736 1390.8 600.2 1469.4 388.6 1452.2 c 1
 325.761752413 1452.2 281.471095367 1369.61441264 234.123297694 1345.06688989 c 1
 263.405414543 1357.94607102 299.041475615 1281.19999999 331.6 1281.2 c 1
 489 1342.4 749.8 1326.6 749.8 1115 c 0
 749.8 863.4 386.6 808.8 386.6 481.2 c 0
 386.6 445.2 389.2 401.6 392.6 367.2 c 1
234.123297694 1345.06688989 m 1
 233.549327214 1344.7693142 232.974907477 1344.48026741 232.4 1344.2 c 1
 232.971918014 1344.52460212 233.546374621 1344.81314128 234.123297694 1345.06688989 c 1
EndSplineSet
EndChar

StartChar: quotedbl
Encoding: 34 34 71
Width: 939
VWidth: 0
Flags: HW
LayerCount: 2
UndoRedoHistory
Layer: 1
Undoes
EndUndoes
Redoes
EndRedoes
EndUndoRedoHistory
Fore
SplineSet
496.2 1293.2 m 1
 635 1293.2 l 1
 635 1787.2 l 1
 457.8 1787.2 l 1
 496.2 1293.2 l 1
187.2 1293.2 m 1
 327 1293.2 l 1
 327 1787.2 l 1
 148.4 1787.2 l 1
 187.2 1293.2 l 1
EndSplineSet
EndChar

StartChar: quotesingle
Encoding: 39 39 72
Width: 722
VWidth: 0
Flags: HW
LayerCount: 2
UndoRedoHistory
Layer: 1
Undoes
EndUndoes
Redoes
EndRedoes
EndUndoRedoHistory
Fore
SplineSet
268 1290.2 m 1
 407.2 1290.2 l 1
 407.2 1784.2 l 1
 229.6 1784.2 l 1
 268 1290.2 l 1
EndSplineSet
EndChar

StartChar: r
Encoding: 114 114 73
Width: 838
VWidth: 0
Flags: HW
LayerCount: 2
UndoRedoHistory
Layer: 1
Undoes
EndUndoes
Redoes
EndRedoes
EndUndoRedoHistory
Fore
SplineSet
194.6 0 m 1
 392.6 0 l 1
 392.6 550.8 l 1
 396.6 724.2 489 860.2 656.6 860.2 c 0
 721.6 860.2 762.2 847.4 790 839.4 c 1
 805.6 1014 l 1
 770 1023.6 735 1033.6 653.2 1033.6 c 0
 533.8 1033.6 404.8 957.4 368 854.8 c 1
 355.6 915.6 310.2 973.6 265.8 1014 c 1
 85.2 928.8 l 1
 130.8 884 194.6 813 194.6 663.8 c 2
 194.6 0 l 1
EndSplineSet
EndChar

StartChar: s
Encoding: 115 115 74
Width: 945
VWidth: 0
Flags: HW
LayerCount: 2
UndoRedoHistory
Layer: 1
Undoes
EndUndoes
Redoes
EndRedoes
EndUndoRedoHistory
Fore
SplineSet
495.2 -22 m 0
 720 -22 847.2 102.2 849.6 286.6 c 0
 852 448 737.15 520.8 562.9 586.325 c 1
 423.85 640.65 322.6 680.5 322.6 760.4 c 0
 322.6 835 381 877 489.4 877 c 0
 574.4 877 678.6 848.2 765.8 802.8 c 1
 809 955.8 l 1
 730.2 998.2 605.6 1035.2 478.2 1035.2 c 0
 241.8 1035.2 134.8 903 133 749.8 c 0
 131.2 596.2 239.55 518.65 410.75 452.95 c 1
 562.75 392.85 665.2 359.8 665.2 266 c 0
 665.2 181.4 597.6 136.8 488 136.8 c 0
 392.4 136.8 275.8 172.2 186.4 228.8 c 1
 135.6 74.2 l 1
 208.4 28.4 347 -22 495.2 -22 c 0
EndSplineSet
EndChar

StartChar: semicolon
Encoding: 59 59 75
Width: 704
VWidth: 0
Flags: HW
LayerCount: 2
UndoRedoHistory
Layer: 1
Undoes
EndUndoes
Redoes
EndRedoes
EndUndoRedoHistory
Fore
SplineSet
193.8 824.4 m 1
 426 824.4 l 1
 426 1049.2 l 1
 215.8 1049.2 l 1
 193.8 824.4 l 1
130.4 -334 m 1
 270.6 -334 l 1
 444.8 161.4 l 1
 244 161.4 l 1
 130.4 -334 l 1
EndSplineSet
EndChar

StartChar: seven
Encoding: 55 55 76
Width: 1250
VWidth: 0
Flags: HW
LayerCount: 2
UndoRedoHistory
Layer: 1
Undoes
EndUndoes
Redoes
EndRedoes
EndUndoRedoHistory
Fore
SplineSet
343 0 m 1
 563.4 0 l 1
 1125.4 1311.8 l 1
 1125.4 1438.8 l 1
 157.4 1438.8 l 1
 157.4 1272.2 l 1
 904.2 1272.2 l 1
 343 0 l 1
EndSplineSet
EndChar

StartChar: six
Encoding: 54 54 77
Width: 1250
VWidth: 0
Flags: HW
LayerCount: 2
UndoRedoHistory
Layer: 1
Undoes
EndUndoes
Redoes
EndRedoes
EndUndoRedoHistory
Fore
SplineSet
633.8 143.4 m 0
 436 143.4 313.2 279.2 313.2 458.2 c 0
 313.2 658 452 779.8 635.8 780.4 c 0
 845.4 781 949.4 634.8 949.4 452.6 c 0
 949.4 257.2 818.6 143.4 633.8 143.4 c 0
639.4 -29 m 0
 914.8 -29 1144 157 1144 461.6 c 0
 1144 731 960.2 940.8 667.8 940.8 c 0
 559.8 940.8 394.8 889.6 338.2 798.4 c 1
 404.4 1090.4 603.4 1299.2 935.6 1361.8 c 1
 883.2 1518.8 l 1
 258 1392.2 99.4 869.2 125 484.2 c 0
 144 196 324 -29 639.4 -29 c 0
EndSplineSet
EndChar

StartChar: slash
Encoding: 47 47 78
Width: 1024
VWidth: 0
Flags: HW
LayerCount: 2
UndoRedoHistory
Layer: 1
Undoes
EndUndoes
Redoes
EndRedoes
EndUndoRedoHistory
Fore
SplineSet
-14.6 -151.2 m 1
 148.4 -151.2 l 1
 787.8 1385.6 l 1
 620.8 1385.6 l 1
 -14.6 -151.2 l 1
EndSplineSet
EndChar

StartChar: t
Encoding: 116 116 80
Width: 852
VWidth: 0
Flags: HW
LayerCount: 2
UndoRedoHistory
Layer: 1
Undoes
EndUndoes
Redoes
EndRedoes
EndUndoRedoHistory
Fore
SplineSet
566.8 -11.2 m 0
 631.8 -11.2 731.6 7.4 804.2 30.2 c 1
 782.8 180 l 1
 736.2 163.2 645.8 145.8 599.8 145.8 c 0
 483.4 145.8 426.8 198.2 426.8 318 c 2
 426.8 879.4 l 1
 739.8 879.4 l 1
 739.8 1014 l 1
 426.8 1014 l 1
 426.8 1342.2 l 1
 233 1302.4 l 1
 233 1014 l 1
 33.4 1014 l 1
 33.4 879.4 l 1
 230 879.4 l 1
 230 298.4 l 2
 230 81.6 348.4 -11.2 566.8 -11.2 c 0
EndSplineSet
EndChar

StartChar: three
Encoding: 51 51 81
Width: 1250
VWidth: 0
Flags: HW
LayerCount: 2
UndoRedoHistory
Layer: 1
Undoes
EndUndoes
Redoes
EndRedoes
EndUndoRedoHistory
Fore
SplineSet
605 -23.8 m 0
 875 -23.8 1126.4 114 1126.4 393.8 c 0
 1126.4 625 967.8 727.8 826.4 760.4 c 1
 951.4 801.8 1087.2 897.8 1087.2 1096.8 c 0
 1087.2 1352.2 867.2 1477.8 623 1477.8 c 0
 428.2 1477.8 254.2 1399.4 171.6 1255.2 c 1
 286.4 1139.4 l 1
 356 1242.4 465.8 1297.8 608.2 1297.8 c 0
 757.2 1297.8 881.6 1240.2 881.6 1084.2 c 0
 881.6 876.4 703.2 835.8 516.6 835.8 c 2
 452.4 835.8 l 1
 454.4 664.4 l 1
 532.6 666.4 l 1
 748.4 670.6 926.8 620 926.8 396.8 c 0
 926.8 240.4 787.8 156.2 614.6 156.2 c 0
 466 156.2 340.6 216.8 258.4 341.6 c 1
 170.2 207.8 l 1
 232.6 50.6 408.4 -23.8 605 -23.8 c 0
EndSplineSet
EndChar

StartChar: two
Encoding: 50 50 82
Width: 1250
VWidth: 0
Flags: HW
LayerCount: 2
UndoRedoHistory
Layer: 1
Undoes
EndUndoes
Redoes
EndRedoes
EndUndoRedoHistory
Fore
SplineSet
142.4 0 m 1
 1076.8 0 l 1
 1076.8 167 l 1
 408 167 l 1
 495.6 247.8 626.4 359.4 743.6 478.8 c 0
 889.2 626.8 1081 837 1081 1073.8 c 0
 1081 1340 869.4 1477.8 619 1477.8 c 0
 396.4 1477.8 217.2 1378.6 148.8 1207.2 c 1
 273.4 1094.2 l 1
 336 1220.2 453.6 1297.8 608.8 1297.8 c 0
 754 1297.8 862.8 1213 862.8 1068.4 c 0
 862.8 896.4 726 726.4 604.8 600.4 c 0
 455.4 444.4 279.6 294.6 141.8 165 c 1
 142.4 0 l 1
EndSplineSet
EndChar

StartChar: u
Encoding: 117 117 83
Width: 1252
VWidth: 0
Flags: HW
LayerCount: 2
UndoRedoHistory
Layer: 1
Undoes
EndUndoes
Redoes
EndRedoes
EndUndoRedoHistory
Fore
SplineSet
531.6 -22 m 0
 684 -22 810 44 883 161.6 c 1
 899.4 50.6 1007.2 -21.4 1166.2 -3.4 c 1
 1189.8 165.4 l 1
 1103 153.4 1052.8 201.6 1052.8 323.2 c 2
 1052.8 1014 l 1
 855.2 1014 l 1
 855.2 445.4 l 2
 855.2 255 725.6 137.6 556.6 137.6 c 0
 444 137.6 347 203.4 351.2 371.4 c 2
 356.8 587.8 l 2
 365.8 918.2 306.6 1014 306.6 1014 c 1
 108 987.6 l 1
 108 987.6 167.2 878.2 158.2 574.8 c 1
 153 360.6 l 1
 145.4 99.6 320.8 -22 531.6 -22 c 0
EndSplineSet
EndChar

StartChar: underscore
Encoding: 95 95 84
Width: 990
VWidth: 0
Flags: HW
LayerCount: 2
UndoRedoHistory
Layer: 1
Undoes
EndUndoes
Redoes
EndRedoes
EndUndoRedoHistory
Fore
SplineSet
-7 -356.2 m 1
 994 -356.2 l 1
 994 -228.2 l 1
 -7 -228.2 l 1
 -7 -356.2 l 1
EndSplineSet
EndChar

StartChar: v
Encoding: 118 118 86
Width: 1080
VWidth: 0
Flags: HW
LayerCount: 2
UndoRedoHistory
Layer: 1
Undoes
EndUndoes
Redoes
EndRedoes
EndUndoRedoHistory
Fore
SplineSet
451.8 0 m 1
 633.4 0 l 1
 1060.8 1014 l 1
 855 1014 l 1
 601.8 395.2 l 2
 589.8 367.8 577.2 328 546.2 227.8 c 1
 530.6 281 508.8 349.2 489 395.2 c 2
 230.8 1014 l 1
 20 1014 l 1
 451.8 0 l 1
EndSplineSet
EndChar

StartChar: w
Encoding: 119 119 87
Width: 1681
VWidth: 0
Flags: HW
LayerCount: 2
UndoRedoHistory
Layer: 1
Undoes
EndUndoes
Redoes
EndRedoes
EndUndoRedoHistory
Fore
SplineSet
400.2 0 m 1
 578.6 0 l 1
 847.4 731.4 l 1
 1108.8 0 l 1
 1286 0 l 1
 1658.8 1014 l 1
 1458.2 1014 l 1
 1241.8 365.8 l 1
 1229.8 335.4 1219.2 301 1199.8 243.4 c 1
 1187.4 282.2 1172 330 1159.6 365.2 c 2
 949.2 973.6 l 1
 929.476839516 1026.8525333 768.999254604 1031.60652428 748.4 971.6 c 2
 533.8 359.2 l 1
 521.8 331.8 511.2 298 493.2 241.6 c 1
 481.2 281 465.8 328.2 453.4 364 c 2
 230 1014 l 1
 22.8 1014 l 1
 400.2 0 l 1
EndSplineSet
EndChar

StartChar: x
Encoding: 120 120 88
Width: 1110
VWidth: 0
Flags: HW
LayerCount: 2
UndoRedoHistory
Layer: 1
Undoes
EndUndoes
Redoes
EndRedoes
EndUndoRedoHistory
Fore
SplineSet
36.8 0 m 1
 257.2 0 l 1
 549.2 382.8 l 1
 832 0 l 1
 1073.8 0 l 1
 683.6 512.4 l 1
 1059.2 1014 l 1
 840.2 1014 l 1
 574.8 648 l 1
 304.8 1014 l 1
 66.2 1014 l 1
 440 516 l 1
 36.8 0 l 1
EndSplineSet
EndChar

StartChar: y
Encoding: 121 121 89
Width: 1232
VWidth: 0
Flags: HW
LayerCount: 2
UndoRedoHistory
Layer: 1
Undoes
EndUndoes
Redoes
EndRedoes
EndUndoRedoHistory
Fore
SplineSet
542.2 -513.2 m 0
 838.8 -513.2 1061.6 -344 1062 -16.2 c 2
 1062.4 323.2 l 1
 1062 1014 l 1
 864.4 1014 l 1
 864.4 445.4 l 1
 865.6 255 734.8 137.6 565.8 137.6 c 0
 454 137.6 355.8 203.4 360.4 371.4 c 2
 365.6 587.8 l 1
 375 918.2 315.8 1014 315.8 1014 c 1
 117.6 987.6 l 1
 117.6 987.6 177.2 878.2 167.8 574.8 c 1
 162.2 361 l 2
 155 100 330 -22 540.8 -22 c 0
 676 -22 790.6 30 866.8 124.4 c 1
 865.6 -44 l 1
 865.6 -252.4 716 -344.2 516.2 -344.2 c 0
 424.8 -344.2 311.2 -316.8 221.2 -271.6 c 1
 191.4 -443.4 l 1
 298.4 -487.2 431.2 -513.2 542.2 -513.2 c 0
EndSplineSet
EndChar

StartChar: z
Encoding: 122 122 90
Width: 1014
VWidth: 0
Flags: HW
LayerCount: 2
UndoRedoHistory
Layer: 1
Undoes
EndUndoes
Redoes
EndRedoes
EndUndoRedoHistory
Fore
SplineSet
104.8 0 m 1
 934.8 0 l 1
 934.8 154.4 l 1
 358.6 154.4 l 1
 918.2 900.6 l 1
 918.2 1014 l 1
 130.8 1014 l 1
 130.8 864.6 l 1
 668 864.6 l 1
 104.8 115.4 l 1
 104.8 0 l 1
EndSplineSet
EndChar

StartChar: zero
Encoding: 48 48 91
Width: 1251
VWidth: 0
Flags: HW
LayerCount: 2
UndoRedoHistory
Layer: 1
Undoes
EndUndoes
Redoes
EndRedoes
EndUndoRedoHistory
Fore
SplineSet
620.6 -12.6 m 0
 986 -12.6 1158.8 323.4 1158.8 729.6 c 0
 1158.8 1151.4 1004.6 1479.4 623.6 1479.4 c 0
 255.8 1479.4 89.4 1143 89.4 729.6 c 0
 89.4 319.8 251 -12.6 620.6 -12.6 c 0
623.6 165.8 m 0
 381.2 165.8 309 435 309 729.6 c 0
 309 1018.8 392 1300.6 623.6 1300.6 c 0
 864.6 1300.6 936 1026 936 729.6 c 0
 936 445.2 851.4 165.8 623.6 165.8 c 0
EndSplineSet
EndChar
